General
Unique ID                   : 329396186389964004523272683283677863957 (0xF7CF65DC59D9B3F72BD062B8339A6015)
Complete name               : GLAY - I am xxx [WEB-DL 1080p AAC x264-SEKAI].mkv
Format                      : Matroska
Format version              : Version 4
File size                   : 255 MiB
Duration                    : 5 min 10 s
Overall bit rate            : 6 884 kb/s
Frame rate                  : 23.976 FPS
Movie name                  : GLAY - I am xxx [WEB-DL 1080p AAC x264-SEKAI]
Encoded date                : 2025-07-19 11:48:51 UTC
Writing application         : mkvmerge v93.0 ('Goblu') 64-bit
Writing library             : libebml v1.4.5 + libmatroska v1.7.1
Website                     : https://sekai-archivist.blogspot.com/

Video
ID                          : 1
Format                      : AVC
Format/Info                 : Advanced Video Codec
Format profile              : High@L4
Format settings             : CABAC / 4 Ref Frames
Format settings, CABAC      : Yes
Format settings, Reference  : 4 frames
Format settings, Slice coun : 8 slices per frame
Codec ID                    : V_MPEG4/ISO/AVC
Duration                    : 5 min 10 s
Bit rate                    : 6 623 kb/s
Width                       : 1 896 pixels
Height                      : 1 072 pixels
Display aspect ratio        : 16:9
Frame rate mode             : Constant
Frame rate                  : 23.976 (24000/1001) FPS
Color space                 : YUV
Chroma subsampling          : 4:2:0 (Type 2)
Bit depth                   : 8 bits
Scan type                   : Progressive
Bits/(Pixel*Frame)          : 0.136
Stream size                 : 245 MiB (96%)
Language                    : Japanese
Default                     : Yes
Forced                      : No
Color range                 : Limited
Color primaries             : BT.709
Transfer characteristics    : BT.709
Matrix coefficients         : BT.709

Audio
ID                          : 2
Format                      : AAC LC
Format/Info                 : Advanced Audio Codec Low Complexity
Codec ID                    : A_AAC-2
Duration                    : 5 min 10 s
Bit rate                    : 259 kb/s
Channel(s)                  : 2 channels
Channel layout              : L R
Sampling rate               : 48.0 kHz
Frame rate                  : 46.875 FPS (1024 SPF)
Compression mode            : Lossy
Stream size                 : 9.56 MiB (4%)
Language                    : Japanese
Default                     : Yes
Forced                      : No

